%
M48
M72
T01C0.0110
T02C0.0320
T03C0.0394
T04C0.0500
T05C0.0650
T06C0.0709
%
T01
X5758Y14893
X22258Y28393
T02
X23758Y22893
X20758Y22893
X14258Y15893
X12758Y15893
X11258Y15893
X11258Y12893
X12758Y12893
X14258Y12893
T03
X14258Y11393
X15258Y11393
X16258Y11393
X17258Y11393
X18258Y11393
X19258Y11393
X19258Y5393
X18258Y5393
X17258Y5393
X16258Y5393
X15258Y5393
X14258Y5393
X13258Y5393
X12258Y5393
X11258Y5393
X10258Y5393
X9258Y5393
X8258Y5393
X7258Y5393
X6258Y5393
X5258Y5393
X5258Y11393
X6258Y11393
X7258Y11393
X8258Y11393
X9258Y11393
X10258Y11393
X11258Y11393
X12258Y11393
X13258Y11393
X13258Y17893
X14258Y17893
X15258Y17893
X14758Y20393
X13758Y20393
X12758Y20393
X12258Y17893
X12258Y29893
X13258Y29893
X14258Y29893
X15258Y29893
T04
X21258Y20893
X23258Y20893
X23258Y15893
X21258Y15893
T05
X4258Y5393
X4258Y11393
X20258Y11393
X20258Y5393
T06
X19309Y24393
X8207Y24393
M30
