G75*
%MOIN*%
%OFA0B0*%
%FSLAX25Y25*%
%IPPOS*%
%LPD*%
%AMOC8*
5,1,8,0,0,1.08239X$1,22.5*
%
%ADD10C,0.00000*%
%ADD11R,0.05937X0.05937*%
%ADD12C,0.05937*%
%ADD13OC8,0.05200*%
%ADD14R,0.07500X0.07500*%
%ADD15C,0.02000*%
D10*
X0037578Y0048933D02*
X0242578Y0048933D01*
X0242578Y0368933D01*
X0037617Y0368933D01*
X0037578Y0368894D02*
X0037578Y0048933D01*
X0039328Y0053933D02*
X0039330Y0054046D01*
X0039336Y0054160D01*
X0039346Y0054273D01*
X0039360Y0054385D01*
X0039377Y0054497D01*
X0039399Y0054609D01*
X0039425Y0054719D01*
X0039454Y0054829D01*
X0039487Y0054937D01*
X0039524Y0055045D01*
X0039565Y0055150D01*
X0039609Y0055255D01*
X0039657Y0055358D01*
X0039708Y0055459D01*
X0039763Y0055558D01*
X0039822Y0055655D01*
X0039884Y0055750D01*
X0039949Y0055843D01*
X0040017Y0055934D01*
X0040088Y0056022D01*
X0040163Y0056108D01*
X0040240Y0056191D01*
X0040320Y0056271D01*
X0040403Y0056348D01*
X0040489Y0056423D01*
X0040577Y0056494D01*
X0040668Y0056562D01*
X0040761Y0056627D01*
X0040856Y0056689D01*
X0040953Y0056748D01*
X0041052Y0056803D01*
X0041153Y0056854D01*
X0041256Y0056902D01*
X0041361Y0056946D01*
X0041466Y0056987D01*
X0041574Y0057024D01*
X0041682Y0057057D01*
X0041792Y0057086D01*
X0041902Y0057112D01*
X0042014Y0057134D01*
X0042126Y0057151D01*
X0042238Y0057165D01*
X0042351Y0057175D01*
X0042465Y0057181D01*
X0042578Y0057183D01*
X0042691Y0057181D01*
X0042805Y0057175D01*
X0042918Y0057165D01*
X0043030Y0057151D01*
X0043142Y0057134D01*
X0043254Y0057112D01*
X0043364Y0057086D01*
X0043474Y0057057D01*
X0043582Y0057024D01*
X0043690Y0056987D01*
X0043795Y0056946D01*
X0043900Y0056902D01*
X0044003Y0056854D01*
X0044104Y0056803D01*
X0044203Y0056748D01*
X0044300Y0056689D01*
X0044395Y0056627D01*
X0044488Y0056562D01*
X0044579Y0056494D01*
X0044667Y0056423D01*
X0044753Y0056348D01*
X0044836Y0056271D01*
X0044916Y0056191D01*
X0044993Y0056108D01*
X0045068Y0056022D01*
X0045139Y0055934D01*
X0045207Y0055843D01*
X0045272Y0055750D01*
X0045334Y0055655D01*
X0045393Y0055558D01*
X0045448Y0055459D01*
X0045499Y0055358D01*
X0045547Y0055255D01*
X0045591Y0055150D01*
X0045632Y0055045D01*
X0045669Y0054937D01*
X0045702Y0054829D01*
X0045731Y0054719D01*
X0045757Y0054609D01*
X0045779Y0054497D01*
X0045796Y0054385D01*
X0045810Y0054273D01*
X0045820Y0054160D01*
X0045826Y0054046D01*
X0045828Y0053933D01*
X0045826Y0053820D01*
X0045820Y0053706D01*
X0045810Y0053593D01*
X0045796Y0053481D01*
X0045779Y0053369D01*
X0045757Y0053257D01*
X0045731Y0053147D01*
X0045702Y0053037D01*
X0045669Y0052929D01*
X0045632Y0052821D01*
X0045591Y0052716D01*
X0045547Y0052611D01*
X0045499Y0052508D01*
X0045448Y0052407D01*
X0045393Y0052308D01*
X0045334Y0052211D01*
X0045272Y0052116D01*
X0045207Y0052023D01*
X0045139Y0051932D01*
X0045068Y0051844D01*
X0044993Y0051758D01*
X0044916Y0051675D01*
X0044836Y0051595D01*
X0044753Y0051518D01*
X0044667Y0051443D01*
X0044579Y0051372D01*
X0044488Y0051304D01*
X0044395Y0051239D01*
X0044300Y0051177D01*
X0044203Y0051118D01*
X0044104Y0051063D01*
X0044003Y0051012D01*
X0043900Y0050964D01*
X0043795Y0050920D01*
X0043690Y0050879D01*
X0043582Y0050842D01*
X0043474Y0050809D01*
X0043364Y0050780D01*
X0043254Y0050754D01*
X0043142Y0050732D01*
X0043030Y0050715D01*
X0042918Y0050701D01*
X0042805Y0050691D01*
X0042691Y0050685D01*
X0042578Y0050683D01*
X0042465Y0050685D01*
X0042351Y0050691D01*
X0042238Y0050701D01*
X0042126Y0050715D01*
X0042014Y0050732D01*
X0041902Y0050754D01*
X0041792Y0050780D01*
X0041682Y0050809D01*
X0041574Y0050842D01*
X0041466Y0050879D01*
X0041361Y0050920D01*
X0041256Y0050964D01*
X0041153Y0051012D01*
X0041052Y0051063D01*
X0040953Y0051118D01*
X0040856Y0051177D01*
X0040761Y0051239D01*
X0040668Y0051304D01*
X0040577Y0051372D01*
X0040489Y0051443D01*
X0040403Y0051518D01*
X0040320Y0051595D01*
X0040240Y0051675D01*
X0040163Y0051758D01*
X0040088Y0051844D01*
X0040017Y0051932D01*
X0039949Y0052023D01*
X0039884Y0052116D01*
X0039822Y0052211D01*
X0039763Y0052308D01*
X0039708Y0052407D01*
X0039657Y0052508D01*
X0039609Y0052611D01*
X0039565Y0052716D01*
X0039524Y0052821D01*
X0039487Y0052929D01*
X0039454Y0053037D01*
X0039425Y0053147D01*
X0039399Y0053257D01*
X0039377Y0053369D01*
X0039360Y0053481D01*
X0039346Y0053593D01*
X0039336Y0053706D01*
X0039330Y0053820D01*
X0039328Y0053933D01*
X0039328Y0113933D02*
X0039330Y0114046D01*
X0039336Y0114160D01*
X0039346Y0114273D01*
X0039360Y0114385D01*
X0039377Y0114497D01*
X0039399Y0114609D01*
X0039425Y0114719D01*
X0039454Y0114829D01*
X0039487Y0114937D01*
X0039524Y0115045D01*
X0039565Y0115150D01*
X0039609Y0115255D01*
X0039657Y0115358D01*
X0039708Y0115459D01*
X0039763Y0115558D01*
X0039822Y0115655D01*
X0039884Y0115750D01*
X0039949Y0115843D01*
X0040017Y0115934D01*
X0040088Y0116022D01*
X0040163Y0116108D01*
X0040240Y0116191D01*
X0040320Y0116271D01*
X0040403Y0116348D01*
X0040489Y0116423D01*
X0040577Y0116494D01*
X0040668Y0116562D01*
X0040761Y0116627D01*
X0040856Y0116689D01*
X0040953Y0116748D01*
X0041052Y0116803D01*
X0041153Y0116854D01*
X0041256Y0116902D01*
X0041361Y0116946D01*
X0041466Y0116987D01*
X0041574Y0117024D01*
X0041682Y0117057D01*
X0041792Y0117086D01*
X0041902Y0117112D01*
X0042014Y0117134D01*
X0042126Y0117151D01*
X0042238Y0117165D01*
X0042351Y0117175D01*
X0042465Y0117181D01*
X0042578Y0117183D01*
X0042691Y0117181D01*
X0042805Y0117175D01*
X0042918Y0117165D01*
X0043030Y0117151D01*
X0043142Y0117134D01*
X0043254Y0117112D01*
X0043364Y0117086D01*
X0043474Y0117057D01*
X0043582Y0117024D01*
X0043690Y0116987D01*
X0043795Y0116946D01*
X0043900Y0116902D01*
X0044003Y0116854D01*
X0044104Y0116803D01*
X0044203Y0116748D01*
X0044300Y0116689D01*
X0044395Y0116627D01*
X0044488Y0116562D01*
X0044579Y0116494D01*
X0044667Y0116423D01*
X0044753Y0116348D01*
X0044836Y0116271D01*
X0044916Y0116191D01*
X0044993Y0116108D01*
X0045068Y0116022D01*
X0045139Y0115934D01*
X0045207Y0115843D01*
X0045272Y0115750D01*
X0045334Y0115655D01*
X0045393Y0115558D01*
X0045448Y0115459D01*
X0045499Y0115358D01*
X0045547Y0115255D01*
X0045591Y0115150D01*
X0045632Y0115045D01*
X0045669Y0114937D01*
X0045702Y0114829D01*
X0045731Y0114719D01*
X0045757Y0114609D01*
X0045779Y0114497D01*
X0045796Y0114385D01*
X0045810Y0114273D01*
X0045820Y0114160D01*
X0045826Y0114046D01*
X0045828Y0113933D01*
X0045826Y0113820D01*
X0045820Y0113706D01*
X0045810Y0113593D01*
X0045796Y0113481D01*
X0045779Y0113369D01*
X0045757Y0113257D01*
X0045731Y0113147D01*
X0045702Y0113037D01*
X0045669Y0112929D01*
X0045632Y0112821D01*
X0045591Y0112716D01*
X0045547Y0112611D01*
X0045499Y0112508D01*
X0045448Y0112407D01*
X0045393Y0112308D01*
X0045334Y0112211D01*
X0045272Y0112116D01*
X0045207Y0112023D01*
X0045139Y0111932D01*
X0045068Y0111844D01*
X0044993Y0111758D01*
X0044916Y0111675D01*
X0044836Y0111595D01*
X0044753Y0111518D01*
X0044667Y0111443D01*
X0044579Y0111372D01*
X0044488Y0111304D01*
X0044395Y0111239D01*
X0044300Y0111177D01*
X0044203Y0111118D01*
X0044104Y0111063D01*
X0044003Y0111012D01*
X0043900Y0110964D01*
X0043795Y0110920D01*
X0043690Y0110879D01*
X0043582Y0110842D01*
X0043474Y0110809D01*
X0043364Y0110780D01*
X0043254Y0110754D01*
X0043142Y0110732D01*
X0043030Y0110715D01*
X0042918Y0110701D01*
X0042805Y0110691D01*
X0042691Y0110685D01*
X0042578Y0110683D01*
X0042465Y0110685D01*
X0042351Y0110691D01*
X0042238Y0110701D01*
X0042126Y0110715D01*
X0042014Y0110732D01*
X0041902Y0110754D01*
X0041792Y0110780D01*
X0041682Y0110809D01*
X0041574Y0110842D01*
X0041466Y0110879D01*
X0041361Y0110920D01*
X0041256Y0110964D01*
X0041153Y0111012D01*
X0041052Y0111063D01*
X0040953Y0111118D01*
X0040856Y0111177D01*
X0040761Y0111239D01*
X0040668Y0111304D01*
X0040577Y0111372D01*
X0040489Y0111443D01*
X0040403Y0111518D01*
X0040320Y0111595D01*
X0040240Y0111675D01*
X0040163Y0111758D01*
X0040088Y0111844D01*
X0040017Y0111932D01*
X0039949Y0112023D01*
X0039884Y0112116D01*
X0039822Y0112211D01*
X0039763Y0112308D01*
X0039708Y0112407D01*
X0039657Y0112508D01*
X0039609Y0112611D01*
X0039565Y0112716D01*
X0039524Y0112821D01*
X0039487Y0112929D01*
X0039454Y0113037D01*
X0039425Y0113147D01*
X0039399Y0113257D01*
X0039377Y0113369D01*
X0039360Y0113481D01*
X0039346Y0113593D01*
X0039336Y0113706D01*
X0039330Y0113820D01*
X0039328Y0113933D01*
X0057028Y0148933D02*
X0057030Y0148980D01*
X0057036Y0149026D01*
X0057046Y0149072D01*
X0057059Y0149116D01*
X0057077Y0149160D01*
X0057098Y0149201D01*
X0057122Y0149241D01*
X0057150Y0149279D01*
X0057181Y0149314D01*
X0057215Y0149346D01*
X0057251Y0149375D01*
X0057290Y0149401D01*
X0057330Y0149424D01*
X0057373Y0149443D01*
X0057417Y0149459D01*
X0057462Y0149471D01*
X0057508Y0149479D01*
X0057555Y0149483D01*
X0057601Y0149483D01*
X0057648Y0149479D01*
X0057694Y0149471D01*
X0057739Y0149459D01*
X0057783Y0149443D01*
X0057826Y0149424D01*
X0057866Y0149401D01*
X0057905Y0149375D01*
X0057941Y0149346D01*
X0057975Y0149314D01*
X0058006Y0149279D01*
X0058034Y0149241D01*
X0058058Y0149201D01*
X0058079Y0149160D01*
X0058097Y0149116D01*
X0058110Y0149072D01*
X0058120Y0149026D01*
X0058126Y0148980D01*
X0058128Y0148933D01*
X0058126Y0148886D01*
X0058120Y0148840D01*
X0058110Y0148794D01*
X0058097Y0148750D01*
X0058079Y0148706D01*
X0058058Y0148665D01*
X0058034Y0148625D01*
X0058006Y0148587D01*
X0057975Y0148552D01*
X0057941Y0148520D01*
X0057905Y0148491D01*
X0057866Y0148465D01*
X0057826Y0148442D01*
X0057783Y0148423D01*
X0057739Y0148407D01*
X0057694Y0148395D01*
X0057648Y0148387D01*
X0057601Y0148383D01*
X0057555Y0148383D01*
X0057508Y0148387D01*
X0057462Y0148395D01*
X0057417Y0148407D01*
X0057373Y0148423D01*
X0057330Y0148442D01*
X0057290Y0148465D01*
X0057251Y0148491D01*
X0057215Y0148520D01*
X0057181Y0148552D01*
X0057150Y0148587D01*
X0057122Y0148625D01*
X0057098Y0148665D01*
X0057077Y0148706D01*
X0057059Y0148750D01*
X0057046Y0148794D01*
X0057036Y0148840D01*
X0057030Y0148886D01*
X0057028Y0148933D01*
X0078523Y0243933D02*
X0078525Y0244051D01*
X0078531Y0244170D01*
X0078541Y0244288D01*
X0078555Y0244405D01*
X0078572Y0244522D01*
X0078594Y0244639D01*
X0078620Y0244754D01*
X0078649Y0244869D01*
X0078682Y0244983D01*
X0078719Y0245095D01*
X0078760Y0245206D01*
X0078804Y0245316D01*
X0078852Y0245424D01*
X0078904Y0245531D01*
X0078959Y0245636D01*
X0079018Y0245739D01*
X0079080Y0245839D01*
X0079145Y0245938D01*
X0079214Y0246035D01*
X0079285Y0246129D01*
X0079360Y0246220D01*
X0079438Y0246310D01*
X0079519Y0246396D01*
X0079603Y0246480D01*
X0079689Y0246561D01*
X0079779Y0246639D01*
X0079870Y0246714D01*
X0079964Y0246785D01*
X0080061Y0246854D01*
X0080160Y0246919D01*
X0080260Y0246981D01*
X0080363Y0247040D01*
X0080468Y0247095D01*
X0080575Y0247147D01*
X0080683Y0247195D01*
X0080793Y0247239D01*
X0080904Y0247280D01*
X0081016Y0247317D01*
X0081130Y0247350D01*
X0081245Y0247379D01*
X0081360Y0247405D01*
X0081477Y0247427D01*
X0081594Y0247444D01*
X0081711Y0247458D01*
X0081829Y0247468D01*
X0081948Y0247474D01*
X0082066Y0247476D01*
X0082184Y0247474D01*
X0082303Y0247468D01*
X0082421Y0247458D01*
X0082538Y0247444D01*
X0082655Y0247427D01*
X0082772Y0247405D01*
X0082887Y0247379D01*
X0083002Y0247350D01*
X0083116Y0247317D01*
X0083228Y0247280D01*
X0083339Y0247239D01*
X0083449Y0247195D01*
X0083557Y0247147D01*
X0083664Y0247095D01*
X0083769Y0247040D01*
X0083872Y0246981D01*
X0083972Y0246919D01*
X0084071Y0246854D01*
X0084168Y0246785D01*
X0084262Y0246714D01*
X0084353Y0246639D01*
X0084443Y0246561D01*
X0084529Y0246480D01*
X0084613Y0246396D01*
X0084694Y0246310D01*
X0084772Y0246220D01*
X0084847Y0246129D01*
X0084918Y0246035D01*
X0084987Y0245938D01*
X0085052Y0245839D01*
X0085114Y0245739D01*
X0085173Y0245636D01*
X0085228Y0245531D01*
X0085280Y0245424D01*
X0085328Y0245316D01*
X0085372Y0245206D01*
X0085413Y0245095D01*
X0085450Y0244983D01*
X0085483Y0244869D01*
X0085512Y0244754D01*
X0085538Y0244639D01*
X0085560Y0244522D01*
X0085577Y0244405D01*
X0085591Y0244288D01*
X0085601Y0244170D01*
X0085607Y0244051D01*
X0085609Y0243933D01*
X0085607Y0243815D01*
X0085601Y0243696D01*
X0085591Y0243578D01*
X0085577Y0243461D01*
X0085560Y0243344D01*
X0085538Y0243227D01*
X0085512Y0243112D01*
X0085483Y0242997D01*
X0085450Y0242883D01*
X0085413Y0242771D01*
X0085372Y0242660D01*
X0085328Y0242550D01*
X0085280Y0242442D01*
X0085228Y0242335D01*
X0085173Y0242230D01*
X0085114Y0242127D01*
X0085052Y0242027D01*
X0084987Y0241928D01*
X0084918Y0241831D01*
X0084847Y0241737D01*
X0084772Y0241646D01*
X0084694Y0241556D01*
X0084613Y0241470D01*
X0084529Y0241386D01*
X0084443Y0241305D01*
X0084353Y0241227D01*
X0084262Y0241152D01*
X0084168Y0241081D01*
X0084071Y0241012D01*
X0083972Y0240947D01*
X0083872Y0240885D01*
X0083769Y0240826D01*
X0083664Y0240771D01*
X0083557Y0240719D01*
X0083449Y0240671D01*
X0083339Y0240627D01*
X0083228Y0240586D01*
X0083116Y0240549D01*
X0083002Y0240516D01*
X0082887Y0240487D01*
X0082772Y0240461D01*
X0082655Y0240439D01*
X0082538Y0240422D01*
X0082421Y0240408D01*
X0082303Y0240398D01*
X0082184Y0240392D01*
X0082066Y0240390D01*
X0081948Y0240392D01*
X0081829Y0240398D01*
X0081711Y0240408D01*
X0081594Y0240422D01*
X0081477Y0240439D01*
X0081360Y0240461D01*
X0081245Y0240487D01*
X0081130Y0240516D01*
X0081016Y0240549D01*
X0080904Y0240586D01*
X0080793Y0240627D01*
X0080683Y0240671D01*
X0080575Y0240719D01*
X0080468Y0240771D01*
X0080363Y0240826D01*
X0080260Y0240885D01*
X0080160Y0240947D01*
X0080061Y0241012D01*
X0079964Y0241081D01*
X0079870Y0241152D01*
X0079779Y0241227D01*
X0079689Y0241305D01*
X0079603Y0241386D01*
X0079519Y0241470D01*
X0079438Y0241556D01*
X0079360Y0241646D01*
X0079285Y0241737D01*
X0079214Y0241831D01*
X0079145Y0241928D01*
X0079080Y0242027D01*
X0079018Y0242127D01*
X0078959Y0242230D01*
X0078904Y0242335D01*
X0078852Y0242442D01*
X0078804Y0242550D01*
X0078760Y0242660D01*
X0078719Y0242771D01*
X0078682Y0242883D01*
X0078649Y0242997D01*
X0078620Y0243112D01*
X0078594Y0243227D01*
X0078572Y0243344D01*
X0078555Y0243461D01*
X0078541Y0243578D01*
X0078531Y0243696D01*
X0078525Y0243815D01*
X0078523Y0243933D01*
X0189546Y0243933D02*
X0189548Y0244051D01*
X0189554Y0244170D01*
X0189564Y0244288D01*
X0189578Y0244405D01*
X0189595Y0244522D01*
X0189617Y0244639D01*
X0189643Y0244754D01*
X0189672Y0244869D01*
X0189705Y0244983D01*
X0189742Y0245095D01*
X0189783Y0245206D01*
X0189827Y0245316D01*
X0189875Y0245424D01*
X0189927Y0245531D01*
X0189982Y0245636D01*
X0190041Y0245739D01*
X0190103Y0245839D01*
X0190168Y0245938D01*
X0190237Y0246035D01*
X0190308Y0246129D01*
X0190383Y0246220D01*
X0190461Y0246310D01*
X0190542Y0246396D01*
X0190626Y0246480D01*
X0190712Y0246561D01*
X0190802Y0246639D01*
X0190893Y0246714D01*
X0190987Y0246785D01*
X0191084Y0246854D01*
X0191183Y0246919D01*
X0191283Y0246981D01*
X0191386Y0247040D01*
X0191491Y0247095D01*
X0191598Y0247147D01*
X0191706Y0247195D01*
X0191816Y0247239D01*
X0191927Y0247280D01*
X0192039Y0247317D01*
X0192153Y0247350D01*
X0192268Y0247379D01*
X0192383Y0247405D01*
X0192500Y0247427D01*
X0192617Y0247444D01*
X0192734Y0247458D01*
X0192852Y0247468D01*
X0192971Y0247474D01*
X0193089Y0247476D01*
X0193207Y0247474D01*
X0193326Y0247468D01*
X0193444Y0247458D01*
X0193561Y0247444D01*
X0193678Y0247427D01*
X0193795Y0247405D01*
X0193910Y0247379D01*
X0194025Y0247350D01*
X0194139Y0247317D01*
X0194251Y0247280D01*
X0194362Y0247239D01*
X0194472Y0247195D01*
X0194580Y0247147D01*
X0194687Y0247095D01*
X0194792Y0247040D01*
X0194895Y0246981D01*
X0194995Y0246919D01*
X0195094Y0246854D01*
X0195191Y0246785D01*
X0195285Y0246714D01*
X0195376Y0246639D01*
X0195466Y0246561D01*
X0195552Y0246480D01*
X0195636Y0246396D01*
X0195717Y0246310D01*
X0195795Y0246220D01*
X0195870Y0246129D01*
X0195941Y0246035D01*
X0196010Y0245938D01*
X0196075Y0245839D01*
X0196137Y0245739D01*
X0196196Y0245636D01*
X0196251Y0245531D01*
X0196303Y0245424D01*
X0196351Y0245316D01*
X0196395Y0245206D01*
X0196436Y0245095D01*
X0196473Y0244983D01*
X0196506Y0244869D01*
X0196535Y0244754D01*
X0196561Y0244639D01*
X0196583Y0244522D01*
X0196600Y0244405D01*
X0196614Y0244288D01*
X0196624Y0244170D01*
X0196630Y0244051D01*
X0196632Y0243933D01*
X0196630Y0243815D01*
X0196624Y0243696D01*
X0196614Y0243578D01*
X0196600Y0243461D01*
X0196583Y0243344D01*
X0196561Y0243227D01*
X0196535Y0243112D01*
X0196506Y0242997D01*
X0196473Y0242883D01*
X0196436Y0242771D01*
X0196395Y0242660D01*
X0196351Y0242550D01*
X0196303Y0242442D01*
X0196251Y0242335D01*
X0196196Y0242230D01*
X0196137Y0242127D01*
X0196075Y0242027D01*
X0196010Y0241928D01*
X0195941Y0241831D01*
X0195870Y0241737D01*
X0195795Y0241646D01*
X0195717Y0241556D01*
X0195636Y0241470D01*
X0195552Y0241386D01*
X0195466Y0241305D01*
X0195376Y0241227D01*
X0195285Y0241152D01*
X0195191Y0241081D01*
X0195094Y0241012D01*
X0194995Y0240947D01*
X0194895Y0240885D01*
X0194792Y0240826D01*
X0194687Y0240771D01*
X0194580Y0240719D01*
X0194472Y0240671D01*
X0194362Y0240627D01*
X0194251Y0240586D01*
X0194139Y0240549D01*
X0194025Y0240516D01*
X0193910Y0240487D01*
X0193795Y0240461D01*
X0193678Y0240439D01*
X0193561Y0240422D01*
X0193444Y0240408D01*
X0193326Y0240398D01*
X0193207Y0240392D01*
X0193089Y0240390D01*
X0192971Y0240392D01*
X0192852Y0240398D01*
X0192734Y0240408D01*
X0192617Y0240422D01*
X0192500Y0240439D01*
X0192383Y0240461D01*
X0192268Y0240487D01*
X0192153Y0240516D01*
X0192039Y0240549D01*
X0191927Y0240586D01*
X0191816Y0240627D01*
X0191706Y0240671D01*
X0191598Y0240719D01*
X0191491Y0240771D01*
X0191386Y0240826D01*
X0191283Y0240885D01*
X0191183Y0240947D01*
X0191084Y0241012D01*
X0190987Y0241081D01*
X0190893Y0241152D01*
X0190802Y0241227D01*
X0190712Y0241305D01*
X0190626Y0241386D01*
X0190542Y0241470D01*
X0190461Y0241556D01*
X0190383Y0241646D01*
X0190308Y0241737D01*
X0190237Y0241831D01*
X0190168Y0241928D01*
X0190103Y0242027D01*
X0190041Y0242127D01*
X0189982Y0242230D01*
X0189927Y0242335D01*
X0189875Y0242442D01*
X0189827Y0242550D01*
X0189783Y0242660D01*
X0189742Y0242771D01*
X0189705Y0242883D01*
X0189672Y0242997D01*
X0189643Y0243112D01*
X0189617Y0243227D01*
X0189595Y0243344D01*
X0189578Y0243461D01*
X0189564Y0243578D01*
X0189554Y0243696D01*
X0189548Y0243815D01*
X0189546Y0243933D01*
X0222028Y0283933D02*
X0222030Y0283980D01*
X0222036Y0284026D01*
X0222046Y0284072D01*
X0222059Y0284116D01*
X0222077Y0284160D01*
X0222098Y0284201D01*
X0222122Y0284241D01*
X0222150Y0284279D01*
X0222181Y0284314D01*
X0222215Y0284346D01*
X0222251Y0284375D01*
X0222290Y0284401D01*
X0222330Y0284424D01*
X0222373Y0284443D01*
X0222417Y0284459D01*
X0222462Y0284471D01*
X0222508Y0284479D01*
X0222555Y0284483D01*
X0222601Y0284483D01*
X0222648Y0284479D01*
X0222694Y0284471D01*
X0222739Y0284459D01*
X0222783Y0284443D01*
X0222826Y0284424D01*
X0222866Y0284401D01*
X0222905Y0284375D01*
X0222941Y0284346D01*
X0222975Y0284314D01*
X0223006Y0284279D01*
X0223034Y0284241D01*
X0223058Y0284201D01*
X0223079Y0284160D01*
X0223097Y0284116D01*
X0223110Y0284072D01*
X0223120Y0284026D01*
X0223126Y0283980D01*
X0223128Y0283933D01*
X0223126Y0283886D01*
X0223120Y0283840D01*
X0223110Y0283794D01*
X0223097Y0283750D01*
X0223079Y0283706D01*
X0223058Y0283665D01*
X0223034Y0283625D01*
X0223006Y0283587D01*
X0222975Y0283552D01*
X0222941Y0283520D01*
X0222905Y0283491D01*
X0222866Y0283465D01*
X0222826Y0283442D01*
X0222783Y0283423D01*
X0222739Y0283407D01*
X0222694Y0283395D01*
X0222648Y0283387D01*
X0222601Y0283383D01*
X0222555Y0283383D01*
X0222508Y0283387D01*
X0222462Y0283395D01*
X0222417Y0283407D01*
X0222373Y0283423D01*
X0222330Y0283442D01*
X0222290Y0283465D01*
X0222251Y0283491D01*
X0222215Y0283520D01*
X0222181Y0283552D01*
X0222150Y0283587D01*
X0222122Y0283625D01*
X0222098Y0283665D01*
X0222077Y0283706D01*
X0222059Y0283750D01*
X0222046Y0283794D01*
X0222036Y0283840D01*
X0222030Y0283886D01*
X0222028Y0283933D01*
X0199328Y0113933D02*
X0199330Y0114046D01*
X0199336Y0114160D01*
X0199346Y0114273D01*
X0199360Y0114385D01*
X0199377Y0114497D01*
X0199399Y0114609D01*
X0199425Y0114719D01*
X0199454Y0114829D01*
X0199487Y0114937D01*
X0199524Y0115045D01*
X0199565Y0115150D01*
X0199609Y0115255D01*
X0199657Y0115358D01*
X0199708Y0115459D01*
X0199763Y0115558D01*
X0199822Y0115655D01*
X0199884Y0115750D01*
X0199949Y0115843D01*
X0200017Y0115934D01*
X0200088Y0116022D01*
X0200163Y0116108D01*
X0200240Y0116191D01*
X0200320Y0116271D01*
X0200403Y0116348D01*
X0200489Y0116423D01*
X0200577Y0116494D01*
X0200668Y0116562D01*
X0200761Y0116627D01*
X0200856Y0116689D01*
X0200953Y0116748D01*
X0201052Y0116803D01*
X0201153Y0116854D01*
X0201256Y0116902D01*
X0201361Y0116946D01*
X0201466Y0116987D01*
X0201574Y0117024D01*
X0201682Y0117057D01*
X0201792Y0117086D01*
X0201902Y0117112D01*
X0202014Y0117134D01*
X0202126Y0117151D01*
X0202238Y0117165D01*
X0202351Y0117175D01*
X0202465Y0117181D01*
X0202578Y0117183D01*
X0202691Y0117181D01*
X0202805Y0117175D01*
X0202918Y0117165D01*
X0203030Y0117151D01*
X0203142Y0117134D01*
X0203254Y0117112D01*
X0203364Y0117086D01*
X0203474Y0117057D01*
X0203582Y0117024D01*
X0203690Y0116987D01*
X0203795Y0116946D01*
X0203900Y0116902D01*
X0204003Y0116854D01*
X0204104Y0116803D01*
X0204203Y0116748D01*
X0204300Y0116689D01*
X0204395Y0116627D01*
X0204488Y0116562D01*
X0204579Y0116494D01*
X0204667Y0116423D01*
X0204753Y0116348D01*
X0204836Y0116271D01*
X0204916Y0116191D01*
X0204993Y0116108D01*
X0205068Y0116022D01*
X0205139Y0115934D01*
X0205207Y0115843D01*
X0205272Y0115750D01*
X0205334Y0115655D01*
X0205393Y0115558D01*
X0205448Y0115459D01*
X0205499Y0115358D01*
X0205547Y0115255D01*
X0205591Y0115150D01*
X0205632Y0115045D01*
X0205669Y0114937D01*
X0205702Y0114829D01*
X0205731Y0114719D01*
X0205757Y0114609D01*
X0205779Y0114497D01*
X0205796Y0114385D01*
X0205810Y0114273D01*
X0205820Y0114160D01*
X0205826Y0114046D01*
X0205828Y0113933D01*
X0205826Y0113820D01*
X0205820Y0113706D01*
X0205810Y0113593D01*
X0205796Y0113481D01*
X0205779Y0113369D01*
X0205757Y0113257D01*
X0205731Y0113147D01*
X0205702Y0113037D01*
X0205669Y0112929D01*
X0205632Y0112821D01*
X0205591Y0112716D01*
X0205547Y0112611D01*
X0205499Y0112508D01*
X0205448Y0112407D01*
X0205393Y0112308D01*
X0205334Y0112211D01*
X0205272Y0112116D01*
X0205207Y0112023D01*
X0205139Y0111932D01*
X0205068Y0111844D01*
X0204993Y0111758D01*
X0204916Y0111675D01*
X0204836Y0111595D01*
X0204753Y0111518D01*
X0204667Y0111443D01*
X0204579Y0111372D01*
X0204488Y0111304D01*
X0204395Y0111239D01*
X0204300Y0111177D01*
X0204203Y0111118D01*
X0204104Y0111063D01*
X0204003Y0111012D01*
X0203900Y0110964D01*
X0203795Y0110920D01*
X0203690Y0110879D01*
X0203582Y0110842D01*
X0203474Y0110809D01*
X0203364Y0110780D01*
X0203254Y0110754D01*
X0203142Y0110732D01*
X0203030Y0110715D01*
X0202918Y0110701D01*
X0202805Y0110691D01*
X0202691Y0110685D01*
X0202578Y0110683D01*
X0202465Y0110685D01*
X0202351Y0110691D01*
X0202238Y0110701D01*
X0202126Y0110715D01*
X0202014Y0110732D01*
X0201902Y0110754D01*
X0201792Y0110780D01*
X0201682Y0110809D01*
X0201574Y0110842D01*
X0201466Y0110879D01*
X0201361Y0110920D01*
X0201256Y0110964D01*
X0201153Y0111012D01*
X0201052Y0111063D01*
X0200953Y0111118D01*
X0200856Y0111177D01*
X0200761Y0111239D01*
X0200668Y0111304D01*
X0200577Y0111372D01*
X0200489Y0111443D01*
X0200403Y0111518D01*
X0200320Y0111595D01*
X0200240Y0111675D01*
X0200163Y0111758D01*
X0200088Y0111844D01*
X0200017Y0111932D01*
X0199949Y0112023D01*
X0199884Y0112116D01*
X0199822Y0112211D01*
X0199763Y0112308D01*
X0199708Y0112407D01*
X0199657Y0112508D01*
X0199609Y0112611D01*
X0199565Y0112716D01*
X0199524Y0112821D01*
X0199487Y0112929D01*
X0199454Y0113037D01*
X0199425Y0113147D01*
X0199399Y0113257D01*
X0199377Y0113369D01*
X0199360Y0113481D01*
X0199346Y0113593D01*
X0199336Y0113706D01*
X0199330Y0113820D01*
X0199328Y0113933D01*
X0199328Y0053933D02*
X0199330Y0054046D01*
X0199336Y0054160D01*
X0199346Y0054273D01*
X0199360Y0054385D01*
X0199377Y0054497D01*
X0199399Y0054609D01*
X0199425Y0054719D01*
X0199454Y0054829D01*
X0199487Y0054937D01*
X0199524Y0055045D01*
X0199565Y0055150D01*
X0199609Y0055255D01*
X0199657Y0055358D01*
X0199708Y0055459D01*
X0199763Y0055558D01*
X0199822Y0055655D01*
X0199884Y0055750D01*
X0199949Y0055843D01*
X0200017Y0055934D01*
X0200088Y0056022D01*
X0200163Y0056108D01*
X0200240Y0056191D01*
X0200320Y0056271D01*
X0200403Y0056348D01*
X0200489Y0056423D01*
X0200577Y0056494D01*
X0200668Y0056562D01*
X0200761Y0056627D01*
X0200856Y0056689D01*
X0200953Y0056748D01*
X0201052Y0056803D01*
X0201153Y0056854D01*
X0201256Y0056902D01*
X0201361Y0056946D01*
X0201466Y0056987D01*
X0201574Y0057024D01*
X0201682Y0057057D01*
X0201792Y0057086D01*
X0201902Y0057112D01*
X0202014Y0057134D01*
X0202126Y0057151D01*
X0202238Y0057165D01*
X0202351Y0057175D01*
X0202465Y0057181D01*
X0202578Y0057183D01*
X0202691Y0057181D01*
X0202805Y0057175D01*
X0202918Y0057165D01*
X0203030Y0057151D01*
X0203142Y0057134D01*
X0203254Y0057112D01*
X0203364Y0057086D01*
X0203474Y0057057D01*
X0203582Y0057024D01*
X0203690Y0056987D01*
X0203795Y0056946D01*
X0203900Y0056902D01*
X0204003Y0056854D01*
X0204104Y0056803D01*
X0204203Y0056748D01*
X0204300Y0056689D01*
X0204395Y0056627D01*
X0204488Y0056562D01*
X0204579Y0056494D01*
X0204667Y0056423D01*
X0204753Y0056348D01*
X0204836Y0056271D01*
X0204916Y0056191D01*
X0204993Y0056108D01*
X0205068Y0056022D01*
X0205139Y0055934D01*
X0205207Y0055843D01*
X0205272Y0055750D01*
X0205334Y0055655D01*
X0205393Y0055558D01*
X0205448Y0055459D01*
X0205499Y0055358D01*
X0205547Y0055255D01*
X0205591Y0055150D01*
X0205632Y0055045D01*
X0205669Y0054937D01*
X0205702Y0054829D01*
X0205731Y0054719D01*
X0205757Y0054609D01*
X0205779Y0054497D01*
X0205796Y0054385D01*
X0205810Y0054273D01*
X0205820Y0054160D01*
X0205826Y0054046D01*
X0205828Y0053933D01*
X0205826Y0053820D01*
X0205820Y0053706D01*
X0205810Y0053593D01*
X0205796Y0053481D01*
X0205779Y0053369D01*
X0205757Y0053257D01*
X0205731Y0053147D01*
X0205702Y0053037D01*
X0205669Y0052929D01*
X0205632Y0052821D01*
X0205591Y0052716D01*
X0205547Y0052611D01*
X0205499Y0052508D01*
X0205448Y0052407D01*
X0205393Y0052308D01*
X0205334Y0052211D01*
X0205272Y0052116D01*
X0205207Y0052023D01*
X0205139Y0051932D01*
X0205068Y0051844D01*
X0204993Y0051758D01*
X0204916Y0051675D01*
X0204836Y0051595D01*
X0204753Y0051518D01*
X0204667Y0051443D01*
X0204579Y0051372D01*
X0204488Y0051304D01*
X0204395Y0051239D01*
X0204300Y0051177D01*
X0204203Y0051118D01*
X0204104Y0051063D01*
X0204003Y0051012D01*
X0203900Y0050964D01*
X0203795Y0050920D01*
X0203690Y0050879D01*
X0203582Y0050842D01*
X0203474Y0050809D01*
X0203364Y0050780D01*
X0203254Y0050754D01*
X0203142Y0050732D01*
X0203030Y0050715D01*
X0202918Y0050701D01*
X0202805Y0050691D01*
X0202691Y0050685D01*
X0202578Y0050683D01*
X0202465Y0050685D01*
X0202351Y0050691D01*
X0202238Y0050701D01*
X0202126Y0050715D01*
X0202014Y0050732D01*
X0201902Y0050754D01*
X0201792Y0050780D01*
X0201682Y0050809D01*
X0201574Y0050842D01*
X0201466Y0050879D01*
X0201361Y0050920D01*
X0201256Y0050964D01*
X0201153Y0051012D01*
X0201052Y0051063D01*
X0200953Y0051118D01*
X0200856Y0051177D01*
X0200761Y0051239D01*
X0200668Y0051304D01*
X0200577Y0051372D01*
X0200489Y0051443D01*
X0200403Y0051518D01*
X0200320Y0051595D01*
X0200240Y0051675D01*
X0200163Y0051758D01*
X0200088Y0051844D01*
X0200017Y0051932D01*
X0199949Y0052023D01*
X0199884Y0052116D01*
X0199822Y0052211D01*
X0199763Y0052308D01*
X0199708Y0052407D01*
X0199657Y0052508D01*
X0199609Y0052611D01*
X0199565Y0052716D01*
X0199524Y0052821D01*
X0199487Y0052929D01*
X0199454Y0053037D01*
X0199425Y0053147D01*
X0199399Y0053257D01*
X0199377Y0053369D01*
X0199360Y0053481D01*
X0199346Y0053593D01*
X0199336Y0053706D01*
X0199330Y0053820D01*
X0199328Y0053933D01*
D11*
X0192578Y0113933D03*
X0152578Y0178933D03*
X0142578Y0178933D03*
X0132578Y0178933D03*
X0122578Y0178933D03*
X0127578Y0203933D03*
X0152578Y0298933D03*
D12*
X0142578Y0298933D03*
X0132578Y0298933D03*
X0122578Y0298933D03*
X0137578Y0203933D03*
X0147578Y0203933D03*
X0152578Y0113933D03*
X0162578Y0113933D03*
X0172578Y0113933D03*
X0182578Y0113933D03*
X0142578Y0113933D03*
X0132578Y0113933D03*
X0122578Y0113933D03*
X0112578Y0113933D03*
X0102578Y0113933D03*
X0092578Y0113933D03*
X0082578Y0113933D03*
X0072578Y0113933D03*
X0062578Y0113933D03*
X0052578Y0113933D03*
X0052578Y0053933D03*
X0062578Y0053933D03*
X0072578Y0053933D03*
X0082578Y0053933D03*
X0092578Y0053933D03*
X0102578Y0053933D03*
X0112578Y0053933D03*
X0122578Y0053933D03*
X0132578Y0053933D03*
X0142578Y0053933D03*
X0152578Y0053933D03*
X0162578Y0053933D03*
X0172578Y0053933D03*
X0182578Y0053933D03*
X0192578Y0053933D03*
D13*
X0142578Y0128933D03*
X0127578Y0128933D03*
X0112578Y0128933D03*
X0112578Y0158933D03*
X0127578Y0158933D03*
X0142578Y0158933D03*
X0207578Y0228933D03*
X0237578Y0228933D03*
D14*
X0232578Y0208933D03*
X0212578Y0208933D03*
X0212578Y0158933D03*
X0232578Y0158933D03*
D15*
X0231578Y0158933D01*
X0181578Y0208933D01*
X0151578Y0208933D01*
X0147578Y0204933D01*
X0147578Y0203933D01*
X0147578Y0202933D01*
X0133578Y0188933D01*
X0133578Y0178933D01*
X0132578Y0178933D01*
X0142578Y0178933D02*
X0143578Y0178933D01*
X0127578Y0162933D01*
X0127578Y0158933D01*
X0113578Y0158933D02*
X0112578Y0158933D01*
X0113578Y0158933D02*
X0113578Y0170933D01*
X0121578Y0178933D01*
X0122578Y0178933D01*
X0129578Y0196933D02*
X0131578Y0196933D01*
X0137578Y0202933D01*
X0137578Y0203933D01*
X0129578Y0196933D02*
X0103578Y0170933D01*
X0103578Y0114933D01*
X0102578Y0113933D01*
X0093578Y0114933D02*
X0092578Y0113933D01*
X0093578Y0114933D02*
X0093578Y0236933D01*
X0141578Y0284933D01*
X0141578Y0298933D01*
X0142578Y0298933D01*
X0151578Y0298933D02*
X0152578Y0298933D01*
X0151578Y0298933D02*
X0151578Y0208933D01*
X0152578Y0178933D02*
X0153578Y0178933D01*
X0143578Y0168933D01*
X0143578Y0158933D01*
X0142578Y0158933D01*
X0142578Y0128933D02*
X0143578Y0128933D01*
X0143578Y0114933D01*
X0142578Y0113933D01*
X0152578Y0113933D02*
X0197578Y0158933D01*
X0212578Y0158933D01*
X0212578Y0208933D02*
X0213578Y0208933D01*
X0233578Y0228933D01*
X0237578Y0228933D01*
X0162578Y0113933D02*
X0181578Y0094933D01*
X0181578Y0054933D01*
X0182578Y0053933D01*
X0122578Y0113933D02*
X0127578Y0118933D01*
X0127578Y0128933D01*
X0113578Y0128933D02*
X0113578Y0114933D01*
X0112578Y0113933D01*
X0112578Y0128933D02*
X0113578Y0128933D01*
X0083578Y0114933D02*
X0082578Y0113933D01*
X0083578Y0114933D02*
X0083578Y0232933D01*
X0131578Y0280933D01*
X0131578Y0298933D01*
X0132578Y0298933D01*
M02*
