G75*
%MOIN*%
%OFA0B0*%
%FSLAX25Y25*%
%IPPOS*%
%LPD*%
%AMOC8*
5,1,8,0,0,1.08239X$1,22.5*
%
%ADD10C,0.01600*%
%ADD11C,0.00600*%
%ADD12C,0.00512*%
%ADD13C,0.00500*%
%ADD14C,0.00300*%
%ADD15R,0.02000X0.01500*%
%ADD16R,0.01500X0.02000*%
D10*
X0082578Y0113933D02*
X0082578Y0233933D01*
X0132578Y0233933D01*
X0132578Y0298933D01*
X0142578Y0298933D02*
X0142578Y0223933D01*
X0092578Y0223933D01*
X0092578Y0113933D01*
X0102578Y0113933D02*
X0102578Y0193933D01*
X0137578Y0193933D01*
X0137578Y0203933D01*
X0142578Y0178933D02*
X0142578Y0168933D01*
X0127578Y0168933D01*
X0127578Y0158933D01*
X0122578Y0168933D02*
X0122578Y0178933D01*
X0122578Y0168933D02*
X0112578Y0168933D01*
X0112578Y0158933D01*
X0112578Y0128933D02*
X0112578Y0113933D01*
X0122578Y0113933D02*
X0122578Y0123933D01*
X0127578Y0123933D01*
X0127578Y0128933D01*
X0142578Y0128933D02*
X0142578Y0113933D01*
X0152578Y0113933D02*
X0152578Y0133933D01*
X0212578Y0133933D01*
X0212578Y0158933D01*
X0152578Y0163933D02*
X0152578Y0178933D01*
X0152578Y0163933D02*
X0142578Y0163933D01*
X0142578Y0158933D01*
D11*
X0145578Y0153933D02*
X0139578Y0153933D01*
X0139518Y0153931D01*
X0139457Y0153926D01*
X0139398Y0153917D01*
X0139339Y0153904D01*
X0139280Y0153888D01*
X0139223Y0153868D01*
X0139168Y0153845D01*
X0139113Y0153818D01*
X0139061Y0153789D01*
X0139010Y0153756D01*
X0138961Y0153720D01*
X0138915Y0153682D01*
X0138871Y0153640D01*
X0138829Y0153596D01*
X0138791Y0153550D01*
X0138755Y0153501D01*
X0138722Y0153450D01*
X0138693Y0153398D01*
X0138666Y0153343D01*
X0138643Y0153288D01*
X0138623Y0153231D01*
X0138607Y0153172D01*
X0138594Y0153113D01*
X0138585Y0153054D01*
X0138580Y0152993D01*
X0138578Y0152933D01*
X0138578Y0151433D01*
X0139078Y0150933D01*
X0139078Y0136933D01*
X0138578Y0136433D01*
X0138578Y0134933D01*
X0138580Y0134873D01*
X0138585Y0134812D01*
X0138594Y0134753D01*
X0138607Y0134694D01*
X0138623Y0134635D01*
X0138643Y0134578D01*
X0138666Y0134523D01*
X0138693Y0134468D01*
X0138722Y0134416D01*
X0138755Y0134365D01*
X0138791Y0134316D01*
X0138829Y0134270D01*
X0138871Y0134226D01*
X0138915Y0134184D01*
X0138961Y0134146D01*
X0139010Y0134110D01*
X0139061Y0134077D01*
X0139113Y0134048D01*
X0139168Y0134021D01*
X0139223Y0133998D01*
X0139280Y0133978D01*
X0139339Y0133962D01*
X0139398Y0133949D01*
X0139457Y0133940D01*
X0139518Y0133935D01*
X0139578Y0133933D01*
X0145578Y0133933D01*
X0145638Y0133935D01*
X0145699Y0133940D01*
X0145758Y0133949D01*
X0145817Y0133962D01*
X0145876Y0133978D01*
X0145933Y0133998D01*
X0145988Y0134021D01*
X0146043Y0134048D01*
X0146095Y0134077D01*
X0146146Y0134110D01*
X0146195Y0134146D01*
X0146241Y0134184D01*
X0146285Y0134226D01*
X0146327Y0134270D01*
X0146365Y0134316D01*
X0146401Y0134365D01*
X0146434Y0134416D01*
X0146463Y0134468D01*
X0146490Y0134523D01*
X0146513Y0134578D01*
X0146533Y0134635D01*
X0146549Y0134694D01*
X0146562Y0134753D01*
X0146571Y0134812D01*
X0146576Y0134873D01*
X0146578Y0134933D01*
X0146578Y0136433D01*
X0146078Y0136933D01*
X0146078Y0150933D01*
X0146578Y0151433D01*
X0146578Y0152933D01*
X0146576Y0152993D01*
X0146571Y0153054D01*
X0146562Y0153113D01*
X0146549Y0153172D01*
X0146533Y0153231D01*
X0146513Y0153288D01*
X0146490Y0153343D01*
X0146463Y0153398D01*
X0146434Y0153450D01*
X0146401Y0153501D01*
X0146365Y0153550D01*
X0146327Y0153596D01*
X0146285Y0153640D01*
X0146241Y0153682D01*
X0146195Y0153720D01*
X0146146Y0153756D01*
X0146095Y0153789D01*
X0146043Y0153818D01*
X0145988Y0153845D01*
X0145933Y0153868D01*
X0145876Y0153888D01*
X0145817Y0153904D01*
X0145758Y0153917D01*
X0145699Y0153926D01*
X0145638Y0153931D01*
X0145578Y0153933D01*
X0131578Y0152933D02*
X0131578Y0151433D01*
X0131078Y0150933D01*
X0131078Y0136933D01*
X0131578Y0136433D01*
X0131578Y0134933D01*
X0131576Y0134873D01*
X0131571Y0134812D01*
X0131562Y0134753D01*
X0131549Y0134694D01*
X0131533Y0134635D01*
X0131513Y0134578D01*
X0131490Y0134523D01*
X0131463Y0134468D01*
X0131434Y0134416D01*
X0131401Y0134365D01*
X0131365Y0134316D01*
X0131327Y0134270D01*
X0131285Y0134226D01*
X0131241Y0134184D01*
X0131195Y0134146D01*
X0131146Y0134110D01*
X0131095Y0134077D01*
X0131043Y0134048D01*
X0130988Y0134021D01*
X0130933Y0133998D01*
X0130876Y0133978D01*
X0130817Y0133962D01*
X0130758Y0133949D01*
X0130699Y0133940D01*
X0130638Y0133935D01*
X0130578Y0133933D01*
X0124578Y0133933D01*
X0124518Y0133935D01*
X0124457Y0133940D01*
X0124398Y0133949D01*
X0124339Y0133962D01*
X0124280Y0133978D01*
X0124223Y0133998D01*
X0124168Y0134021D01*
X0124113Y0134048D01*
X0124061Y0134077D01*
X0124010Y0134110D01*
X0123961Y0134146D01*
X0123915Y0134184D01*
X0123871Y0134226D01*
X0123829Y0134270D01*
X0123791Y0134316D01*
X0123755Y0134365D01*
X0123722Y0134416D01*
X0123693Y0134468D01*
X0123666Y0134523D01*
X0123643Y0134578D01*
X0123623Y0134635D01*
X0123607Y0134694D01*
X0123594Y0134753D01*
X0123585Y0134812D01*
X0123580Y0134873D01*
X0123578Y0134933D01*
X0123578Y0136433D01*
X0124078Y0136933D01*
X0124078Y0150933D01*
X0123578Y0151433D01*
X0123578Y0152933D01*
X0123580Y0152993D01*
X0123585Y0153054D01*
X0123594Y0153113D01*
X0123607Y0153172D01*
X0123623Y0153231D01*
X0123643Y0153288D01*
X0123666Y0153343D01*
X0123693Y0153398D01*
X0123722Y0153450D01*
X0123755Y0153501D01*
X0123791Y0153550D01*
X0123829Y0153596D01*
X0123871Y0153640D01*
X0123915Y0153682D01*
X0123961Y0153720D01*
X0124010Y0153756D01*
X0124061Y0153789D01*
X0124113Y0153818D01*
X0124168Y0153845D01*
X0124223Y0153868D01*
X0124280Y0153888D01*
X0124339Y0153904D01*
X0124398Y0153917D01*
X0124457Y0153926D01*
X0124518Y0153931D01*
X0124578Y0153933D01*
X0130578Y0153933D01*
X0130638Y0153931D01*
X0130699Y0153926D01*
X0130758Y0153917D01*
X0130817Y0153904D01*
X0130876Y0153888D01*
X0130933Y0153868D01*
X0130988Y0153845D01*
X0131043Y0153818D01*
X0131095Y0153789D01*
X0131146Y0153756D01*
X0131195Y0153720D01*
X0131241Y0153682D01*
X0131285Y0153640D01*
X0131327Y0153596D01*
X0131365Y0153550D01*
X0131401Y0153501D01*
X0131434Y0153450D01*
X0131463Y0153398D01*
X0131490Y0153343D01*
X0131513Y0153288D01*
X0131533Y0153231D01*
X0131549Y0153172D01*
X0131562Y0153113D01*
X0131571Y0153054D01*
X0131576Y0152993D01*
X0131578Y0152933D01*
X0116578Y0152933D02*
X0116578Y0151433D01*
X0116078Y0150933D01*
X0116078Y0136933D01*
X0116578Y0136433D01*
X0116578Y0134933D01*
X0116576Y0134873D01*
X0116571Y0134812D01*
X0116562Y0134753D01*
X0116549Y0134694D01*
X0116533Y0134635D01*
X0116513Y0134578D01*
X0116490Y0134523D01*
X0116463Y0134468D01*
X0116434Y0134416D01*
X0116401Y0134365D01*
X0116365Y0134316D01*
X0116327Y0134270D01*
X0116285Y0134226D01*
X0116241Y0134184D01*
X0116195Y0134146D01*
X0116146Y0134110D01*
X0116095Y0134077D01*
X0116043Y0134048D01*
X0115988Y0134021D01*
X0115933Y0133998D01*
X0115876Y0133978D01*
X0115817Y0133962D01*
X0115758Y0133949D01*
X0115699Y0133940D01*
X0115638Y0133935D01*
X0115578Y0133933D01*
X0109578Y0133933D01*
X0109518Y0133935D01*
X0109457Y0133940D01*
X0109398Y0133949D01*
X0109339Y0133962D01*
X0109280Y0133978D01*
X0109223Y0133998D01*
X0109168Y0134021D01*
X0109113Y0134048D01*
X0109061Y0134077D01*
X0109010Y0134110D01*
X0108961Y0134146D01*
X0108915Y0134184D01*
X0108871Y0134226D01*
X0108829Y0134270D01*
X0108791Y0134316D01*
X0108755Y0134365D01*
X0108722Y0134416D01*
X0108693Y0134468D01*
X0108666Y0134523D01*
X0108643Y0134578D01*
X0108623Y0134635D01*
X0108607Y0134694D01*
X0108594Y0134753D01*
X0108585Y0134812D01*
X0108580Y0134873D01*
X0108578Y0134933D01*
X0108578Y0136433D01*
X0109078Y0136933D01*
X0109078Y0150933D01*
X0108578Y0151433D01*
X0108578Y0152933D01*
X0108580Y0152993D01*
X0108585Y0153054D01*
X0108594Y0153113D01*
X0108607Y0153172D01*
X0108623Y0153231D01*
X0108643Y0153288D01*
X0108666Y0153343D01*
X0108693Y0153398D01*
X0108722Y0153450D01*
X0108755Y0153501D01*
X0108791Y0153550D01*
X0108829Y0153596D01*
X0108871Y0153640D01*
X0108915Y0153682D01*
X0108961Y0153720D01*
X0109010Y0153756D01*
X0109061Y0153789D01*
X0109113Y0153818D01*
X0109168Y0153845D01*
X0109223Y0153868D01*
X0109280Y0153888D01*
X0109339Y0153904D01*
X0109398Y0153917D01*
X0109457Y0153926D01*
X0109518Y0153931D01*
X0109578Y0153933D01*
X0115578Y0153933D01*
X0115638Y0153931D01*
X0115699Y0153926D01*
X0115758Y0153917D01*
X0115817Y0153904D01*
X0115876Y0153888D01*
X0115933Y0153868D01*
X0115988Y0153845D01*
X0116043Y0153818D01*
X0116095Y0153789D01*
X0116146Y0153756D01*
X0116195Y0153720D01*
X0116241Y0153682D01*
X0116285Y0153640D01*
X0116327Y0153596D01*
X0116365Y0153550D01*
X0116401Y0153501D01*
X0116434Y0153450D01*
X0116463Y0153398D01*
X0116490Y0153343D01*
X0116513Y0153288D01*
X0116533Y0153231D01*
X0116549Y0153172D01*
X0116562Y0153113D01*
X0116571Y0153054D01*
X0116576Y0152993D01*
X0116578Y0152933D01*
X0059303Y0087139D02*
X0060371Y0086071D01*
X0060371Y0085003D01*
X0059303Y0083936D01*
X0056100Y0083936D01*
X0053925Y0082868D02*
X0053925Y0081801D01*
X0052858Y0080733D01*
X0050722Y0080733D01*
X0049655Y0081801D01*
X0047480Y0081801D02*
X0047480Y0087139D01*
X0049655Y0086071D02*
X0049655Y0085003D01*
X0050722Y0083936D01*
X0052858Y0083936D01*
X0053925Y0082868D01*
X0056100Y0080733D02*
X0056100Y0087139D01*
X0059303Y0087139D01*
X0059303Y0083936D02*
X0060371Y0082868D01*
X0060371Y0081801D01*
X0059303Y0080733D01*
X0056100Y0080733D01*
X0053925Y0086071D02*
X0052858Y0087139D01*
X0050722Y0087139D01*
X0049655Y0086071D01*
X0047480Y0081801D02*
X0046412Y0080733D01*
X0044277Y0080733D01*
X0043209Y0081801D01*
X0043209Y0087139D01*
X0113605Y0017900D02*
X0110402Y0014698D01*
X0114673Y0014698D01*
X0116848Y0016833D02*
X0117916Y0017900D01*
X0120051Y0017900D01*
X0121118Y0016833D01*
X0121118Y0015765D01*
X0120051Y0014698D01*
X0121118Y0013630D01*
X0121118Y0012562D01*
X0120051Y0011495D01*
X0117916Y0011495D01*
X0116848Y0012562D01*
X0118983Y0014698D02*
X0120051Y0014698D01*
X0123293Y0012562D02*
X0124361Y0012562D01*
X0124361Y0011495D01*
X0123293Y0011495D01*
X0123293Y0012562D01*
X0126516Y0011495D02*
X0130787Y0011495D01*
X0128651Y0011495D02*
X0128651Y0017900D01*
X0126516Y0015765D01*
X0132962Y0015765D02*
X0132962Y0016833D01*
X0134029Y0017900D01*
X0136164Y0017900D01*
X0137232Y0016833D01*
X0137232Y0015765D01*
X0136164Y0014698D01*
X0134029Y0014698D01*
X0132962Y0015765D01*
X0134029Y0014698D02*
X0132962Y0013630D01*
X0132962Y0012562D01*
X0134029Y0011495D01*
X0136164Y0011495D01*
X0137232Y0012562D01*
X0137232Y0013630D01*
X0136164Y0014698D01*
X0113605Y0011495D02*
X0113605Y0017900D01*
X0008966Y0196761D02*
X0007898Y0196761D01*
X0006831Y0197829D01*
X0006831Y0199964D01*
X0007898Y0201032D01*
X0008966Y0201032D01*
X0010033Y0199964D01*
X0010033Y0197829D01*
X0008966Y0196761D01*
X0006831Y0197829D02*
X0005763Y0196761D01*
X0004695Y0196761D01*
X0003628Y0197829D01*
X0003628Y0199964D01*
X0004695Y0201032D01*
X0005763Y0201032D01*
X0006831Y0199964D01*
X0005763Y0203207D02*
X0003628Y0205342D01*
X0010033Y0205342D01*
X0010033Y0203207D02*
X0010033Y0207477D01*
X0010033Y0209652D02*
X0008966Y0209652D01*
X0008966Y0210720D01*
X0010033Y0210720D01*
X0010033Y0209652D01*
X0010033Y0212875D02*
X0005763Y0217145D01*
X0004695Y0217145D01*
X0003628Y0216078D01*
X0003628Y0213943D01*
X0004695Y0212875D01*
X0004695Y0219321D02*
X0005763Y0219321D01*
X0006831Y0220388D01*
X0006831Y0222523D01*
X0007898Y0223591D01*
X0008966Y0223591D01*
X0010033Y0222523D01*
X0010033Y0220388D01*
X0008966Y0219321D01*
X0007898Y0219321D01*
X0006831Y0220388D01*
X0006831Y0222523D02*
X0005763Y0223591D01*
X0004695Y0223591D01*
X0003628Y0222523D01*
X0003628Y0220388D01*
X0004695Y0219321D01*
X0010033Y0217145D02*
X0010033Y0212875D01*
X0187878Y0300301D02*
X0188945Y0299233D01*
X0191080Y0299233D01*
X0192148Y0300301D01*
X0192148Y0301368D01*
X0191080Y0302436D01*
X0188945Y0302436D01*
X0187878Y0303503D01*
X0187878Y0304571D01*
X0188945Y0305639D01*
X0191080Y0305639D01*
X0192148Y0304571D01*
X0194323Y0303503D02*
X0196458Y0303503D01*
X0195391Y0304571D02*
X0195391Y0300301D01*
X0196458Y0299233D01*
X0198620Y0300301D02*
X0199688Y0301368D01*
X0202890Y0301368D01*
X0202890Y0302436D02*
X0202890Y0299233D01*
X0199688Y0299233D01*
X0198620Y0300301D01*
X0199688Y0303503D02*
X0201823Y0303503D01*
X0202890Y0302436D01*
X0205066Y0303503D02*
X0205066Y0299233D01*
X0209336Y0299233D02*
X0209336Y0302436D01*
X0208268Y0303503D01*
X0205066Y0303503D01*
X0211511Y0302436D02*
X0212579Y0303503D01*
X0215781Y0303503D01*
X0215781Y0305639D02*
X0215781Y0299233D01*
X0212579Y0299233D01*
X0211511Y0300301D01*
X0211511Y0302436D01*
X0217957Y0300301D02*
X0219024Y0299233D01*
X0221159Y0299233D01*
X0222227Y0300301D01*
X0222227Y0305639D01*
X0224402Y0303503D02*
X0227605Y0303503D01*
X0228672Y0302436D01*
X0228672Y0300301D01*
X0227605Y0299233D01*
X0224402Y0299233D01*
X0224402Y0297098D02*
X0224402Y0303503D01*
X0230848Y0302436D02*
X0230848Y0306706D01*
X0230848Y0300301D02*
X0230848Y0299233D01*
X0217957Y0300301D02*
X0217957Y0305639D01*
X0215078Y0232933D02*
X0213578Y0232933D01*
X0213518Y0232931D01*
X0213457Y0232926D01*
X0213398Y0232917D01*
X0213339Y0232904D01*
X0213280Y0232888D01*
X0213223Y0232868D01*
X0213168Y0232845D01*
X0213113Y0232818D01*
X0213061Y0232789D01*
X0213010Y0232756D01*
X0212961Y0232720D01*
X0212915Y0232682D01*
X0212871Y0232640D01*
X0212829Y0232596D01*
X0212791Y0232550D01*
X0212755Y0232501D01*
X0212722Y0232450D01*
X0212693Y0232398D01*
X0212666Y0232343D01*
X0212643Y0232288D01*
X0212623Y0232231D01*
X0212607Y0232172D01*
X0212594Y0232113D01*
X0212585Y0232054D01*
X0212580Y0231993D01*
X0212578Y0231933D01*
X0212578Y0225933D01*
X0212580Y0225873D01*
X0212585Y0225812D01*
X0212594Y0225753D01*
X0212607Y0225694D01*
X0212623Y0225635D01*
X0212643Y0225578D01*
X0212666Y0225523D01*
X0212693Y0225468D01*
X0212722Y0225416D01*
X0212755Y0225365D01*
X0212791Y0225316D01*
X0212829Y0225270D01*
X0212871Y0225226D01*
X0212915Y0225184D01*
X0212961Y0225146D01*
X0213010Y0225110D01*
X0213061Y0225077D01*
X0213113Y0225048D01*
X0213168Y0225021D01*
X0213223Y0224998D01*
X0213280Y0224978D01*
X0213339Y0224962D01*
X0213398Y0224949D01*
X0213457Y0224940D01*
X0213518Y0224935D01*
X0213578Y0224933D01*
X0215078Y0224933D01*
X0215578Y0225433D01*
X0229578Y0225433D01*
X0230078Y0224933D01*
X0231578Y0224933D01*
X0231638Y0224935D01*
X0231699Y0224940D01*
X0231758Y0224949D01*
X0231817Y0224962D01*
X0231876Y0224978D01*
X0231933Y0224998D01*
X0231988Y0225021D01*
X0232043Y0225048D01*
X0232095Y0225077D01*
X0232146Y0225110D01*
X0232195Y0225146D01*
X0232241Y0225184D01*
X0232285Y0225226D01*
X0232327Y0225270D01*
X0232365Y0225316D01*
X0232401Y0225365D01*
X0232434Y0225416D01*
X0232463Y0225468D01*
X0232490Y0225523D01*
X0232513Y0225578D01*
X0232533Y0225635D01*
X0232549Y0225694D01*
X0232562Y0225753D01*
X0232571Y0225812D01*
X0232576Y0225873D01*
X0232578Y0225933D01*
X0232578Y0231933D01*
X0232576Y0231993D01*
X0232571Y0232054D01*
X0232562Y0232113D01*
X0232549Y0232172D01*
X0232533Y0232231D01*
X0232513Y0232288D01*
X0232490Y0232343D01*
X0232463Y0232398D01*
X0232434Y0232450D01*
X0232401Y0232501D01*
X0232365Y0232550D01*
X0232327Y0232596D01*
X0232285Y0232640D01*
X0232241Y0232682D01*
X0232195Y0232720D01*
X0232146Y0232756D01*
X0232095Y0232789D01*
X0232043Y0232818D01*
X0231988Y0232845D01*
X0231933Y0232868D01*
X0231876Y0232888D01*
X0231817Y0232904D01*
X0231758Y0232917D01*
X0231699Y0232926D01*
X0231638Y0232931D01*
X0231578Y0232933D01*
X0230078Y0232933D01*
X0229578Y0232433D01*
X0215578Y0232433D01*
X0215078Y0232933D01*
D12*
X0037578Y0048933D02*
X0004900Y0048937D01*
X0012577Y0049192D02*
X0011555Y0059172D01*
X0011321Y0059173D02*
X0013835Y0059172D01*
X0012577Y0049192D01*
X0013602Y0059172D01*
X0013090Y0059172D02*
X0012577Y0049192D01*
X0012066Y0059172D01*
X0011321Y0059173D02*
X0012577Y0049192D01*
X0012616Y0368680D01*
X0013639Y0358700D01*
X0013872Y0358700D02*
X0012616Y0368680D01*
X0011591Y0358700D01*
X0011358Y0358700D02*
X0013872Y0358700D01*
X0013127Y0358700D02*
X0012616Y0368680D01*
X0012103Y0358700D01*
X0011358Y0358700D02*
X0012616Y0368680D01*
X0004939Y0368937D02*
X0037617Y0368933D01*
X0037578Y0048933D02*
X0037578Y0001256D01*
X0037834Y0008933D02*
X0047814Y0007909D01*
X0047814Y0007676D02*
X0037834Y0008933D01*
X0047814Y0009957D01*
X0047814Y0010190D02*
X0047814Y0007676D01*
X0047814Y0008421D02*
X0037834Y0008933D01*
X0047814Y0009445D01*
X0047814Y0010190D02*
X0037834Y0008933D01*
X0207322Y0008933D01*
X0197341Y0007909D01*
X0197341Y0007676D02*
X0207322Y0008933D01*
X0197341Y0009957D01*
X0197341Y0010190D02*
X0197341Y0007676D01*
X0197341Y0008421D02*
X0207322Y0008933D01*
X0197341Y0009445D01*
X0197341Y0010190D02*
X0207322Y0008933D01*
X0207578Y0001256D02*
X0207578Y0048933D01*
D13*
X0190078Y0048933D01*
X0187578Y0051433D01*
X0185078Y0048933D01*
X0190078Y0048933D01*
X0195078Y0048933D02*
X0197578Y0051433D01*
X0197578Y0056433D01*
X0195078Y0058933D01*
X0190078Y0058933D01*
X0187578Y0056433D01*
X0185078Y0058933D01*
X0180078Y0058933D01*
X0177578Y0056433D01*
X0175078Y0058933D01*
X0170078Y0058933D01*
X0167578Y0056433D01*
X0165078Y0058933D01*
X0160078Y0058933D01*
X0157578Y0056433D01*
X0155078Y0058933D01*
X0150078Y0058933D01*
X0147578Y0056433D01*
X0145078Y0058933D01*
X0140078Y0058933D01*
X0137578Y0056433D01*
X0135078Y0058933D01*
X0130078Y0058933D01*
X0127578Y0056433D01*
X0125078Y0058933D01*
X0120078Y0058933D01*
X0117578Y0056433D01*
X0115078Y0058933D01*
X0110078Y0058933D01*
X0107578Y0056433D01*
X0105078Y0058933D01*
X0100078Y0058933D01*
X0097578Y0056433D01*
X0095078Y0058933D01*
X0090078Y0058933D01*
X0087578Y0056433D01*
X0085078Y0058933D01*
X0080078Y0058933D01*
X0077578Y0056433D01*
X0075078Y0058933D01*
X0070078Y0058933D01*
X0067578Y0056433D01*
X0065078Y0058933D01*
X0060078Y0058933D01*
X0057578Y0056433D01*
X0055078Y0058933D01*
X0050078Y0058933D01*
X0047578Y0056433D01*
X0047578Y0051433D01*
X0050078Y0048933D01*
X0055078Y0048933D01*
X0057578Y0051433D01*
X0060078Y0048933D01*
X0065078Y0048933D01*
X0067578Y0051433D01*
X0070078Y0048933D01*
X0075078Y0048933D01*
X0077578Y0051433D01*
X0080078Y0048933D01*
X0075078Y0048933D02*
X0085078Y0048933D01*
X0087578Y0051433D01*
X0090078Y0048933D01*
X0095078Y0048933D01*
X0097578Y0051433D01*
X0100078Y0048933D01*
X0105078Y0048933D01*
X0107578Y0051433D01*
X0110078Y0048933D01*
X0115078Y0048933D01*
X0117578Y0051433D01*
X0120078Y0048933D01*
X0125078Y0048933D01*
X0127578Y0051433D01*
X0130078Y0048933D01*
X0135078Y0048933D01*
X0137578Y0051433D01*
X0140078Y0048933D01*
X0145078Y0048933D01*
X0147578Y0051433D01*
X0150078Y0048933D01*
X0155078Y0048933D01*
X0157578Y0051433D01*
X0160078Y0048933D01*
X0165078Y0048933D01*
X0167578Y0051433D01*
X0170078Y0048933D01*
X0175078Y0048933D01*
X0177578Y0051433D01*
X0180078Y0048933D01*
X0185078Y0048933D01*
X0180078Y0048933D02*
X0175078Y0048933D01*
X0170078Y0048933D02*
X0165078Y0048933D01*
X0160078Y0048933D02*
X0155078Y0048933D01*
X0150078Y0048933D02*
X0145078Y0048933D01*
X0140078Y0048933D02*
X0135078Y0048933D01*
X0130078Y0048933D02*
X0125078Y0048933D01*
X0120078Y0048933D02*
X0115078Y0048933D01*
X0110078Y0048933D02*
X0105078Y0048933D01*
X0100078Y0048933D02*
X0095078Y0048933D01*
X0090078Y0048933D02*
X0085078Y0048933D01*
X0070078Y0048933D02*
X0065078Y0048933D01*
X0060078Y0048933D02*
X0055078Y0048933D01*
X0050078Y0048933D02*
X0037578Y0048933D01*
X0037578Y0071433D01*
X0032578Y0071433D01*
X0032578Y0096433D01*
X0037578Y0096433D01*
X0067578Y0096433D01*
X0067578Y0071433D01*
X0037578Y0071433D01*
X0037578Y0096433D02*
X0037578Y0118933D01*
X0050078Y0118933D01*
X0047578Y0116433D01*
X0047578Y0111433D01*
X0050078Y0108933D01*
X0055078Y0108933D01*
X0057578Y0111433D01*
X0060078Y0108933D01*
X0065078Y0108933D01*
X0067578Y0111433D01*
X0070078Y0108933D01*
X0075078Y0108933D01*
X0077578Y0111433D01*
X0080078Y0108933D01*
X0085078Y0108933D01*
X0087578Y0111433D01*
X0090078Y0108933D01*
X0095078Y0108933D01*
X0097578Y0111433D01*
X0100078Y0108933D01*
X0105078Y0108933D01*
X0107578Y0111433D01*
X0110078Y0108933D01*
X0115078Y0108933D01*
X0117578Y0111433D01*
X0120078Y0108933D01*
X0125078Y0108933D01*
X0127578Y0111433D01*
X0130078Y0108933D01*
X0135078Y0108933D01*
X0137578Y0111433D01*
X0140078Y0108933D01*
X0145078Y0108933D01*
X0147578Y0111433D01*
X0150078Y0108933D01*
X0155078Y0108933D01*
X0157578Y0111433D01*
X0160078Y0108933D01*
X0165078Y0108933D01*
X0167578Y0111433D01*
X0170078Y0108933D01*
X0175078Y0108933D01*
X0177578Y0111433D01*
X0180078Y0108933D01*
X0185078Y0108933D01*
X0187578Y0111433D01*
X0190078Y0108933D01*
X0195078Y0108933D01*
X0197578Y0111433D01*
X0197578Y0116433D01*
X0195078Y0118933D01*
X0190078Y0118933D02*
X0187578Y0116433D01*
X0185078Y0118933D01*
X0170078Y0118933D01*
X0167578Y0116433D01*
X0165078Y0118933D01*
X0170078Y0118933D02*
X0105078Y0118933D01*
X0075078Y0118933D01*
X0077578Y0116433D01*
X0080078Y0118933D01*
X0085078Y0118933D02*
X0087578Y0116433D01*
X0090078Y0118933D01*
X0095078Y0118933D02*
X0097578Y0116433D01*
X0100078Y0118933D01*
X0105078Y0118933D02*
X0107578Y0116433D01*
X0110078Y0118933D01*
X0115078Y0118933D02*
X0117578Y0116433D01*
X0120078Y0118933D01*
X0125078Y0118933D02*
X0127578Y0116433D01*
X0130078Y0118933D01*
X0135078Y0118933D02*
X0137578Y0116433D01*
X0140078Y0118933D01*
X0145078Y0118933D02*
X0147578Y0116433D01*
X0150078Y0118933D01*
X0155078Y0118933D02*
X0157578Y0116433D01*
X0160078Y0118933D01*
X0175078Y0118933D02*
X0177578Y0116433D01*
X0180078Y0118933D01*
X0185078Y0118933D02*
X0207578Y0118933D01*
X0207578Y0096433D01*
X0207578Y0071433D01*
X0207578Y0048933D01*
X0137578Y0073933D02*
X0137578Y0088933D01*
X0127578Y0088933D01*
X0127578Y0073933D01*
X0137578Y0073933D01*
X0129578Y0081433D02*
X0129580Y0081542D01*
X0129586Y0081651D01*
X0129596Y0081759D01*
X0129610Y0081867D01*
X0129627Y0081975D01*
X0129649Y0082082D01*
X0129674Y0082188D01*
X0129704Y0082292D01*
X0129737Y0082396D01*
X0129774Y0082499D01*
X0129814Y0082600D01*
X0129858Y0082699D01*
X0129906Y0082797D01*
X0129958Y0082894D01*
X0130012Y0082988D01*
X0130070Y0083080D01*
X0130132Y0083170D01*
X0130197Y0083257D01*
X0130264Y0083343D01*
X0130335Y0083426D01*
X0130409Y0083506D01*
X0130486Y0083583D01*
X0130565Y0083658D01*
X0130647Y0083729D01*
X0130732Y0083798D01*
X0130819Y0083863D01*
X0130908Y0083926D01*
X0131000Y0083984D01*
X0131094Y0084040D01*
X0131189Y0084092D01*
X0131287Y0084141D01*
X0131386Y0084186D01*
X0131487Y0084228D01*
X0131589Y0084265D01*
X0131692Y0084299D01*
X0131797Y0084330D01*
X0131903Y0084356D01*
X0132009Y0084379D01*
X0132117Y0084397D01*
X0132225Y0084412D01*
X0132333Y0084423D01*
X0132442Y0084430D01*
X0132551Y0084433D01*
X0132660Y0084432D01*
X0132769Y0084427D01*
X0132877Y0084418D01*
X0132985Y0084405D01*
X0133093Y0084388D01*
X0133200Y0084368D01*
X0133306Y0084343D01*
X0133411Y0084315D01*
X0133515Y0084283D01*
X0133618Y0084247D01*
X0133720Y0084207D01*
X0133820Y0084164D01*
X0133918Y0084117D01*
X0134015Y0084067D01*
X0134109Y0084013D01*
X0134202Y0083955D01*
X0134293Y0083895D01*
X0134381Y0083831D01*
X0134467Y0083764D01*
X0134550Y0083694D01*
X0134631Y0083621D01*
X0134709Y0083545D01*
X0134784Y0083466D01*
X0134857Y0083384D01*
X0134926Y0083300D01*
X0134992Y0083214D01*
X0135055Y0083125D01*
X0135115Y0083034D01*
X0135172Y0082941D01*
X0135225Y0082846D01*
X0135274Y0082749D01*
X0135320Y0082650D01*
X0135362Y0082550D01*
X0135401Y0082448D01*
X0135436Y0082344D01*
X0135467Y0082240D01*
X0135495Y0082135D01*
X0135518Y0082028D01*
X0135538Y0081921D01*
X0135554Y0081813D01*
X0135566Y0081705D01*
X0135574Y0081596D01*
X0135578Y0081487D01*
X0135578Y0081379D01*
X0135574Y0081270D01*
X0135566Y0081161D01*
X0135554Y0081053D01*
X0135538Y0080945D01*
X0135518Y0080838D01*
X0135495Y0080731D01*
X0135467Y0080626D01*
X0135436Y0080522D01*
X0135401Y0080418D01*
X0135362Y0080316D01*
X0135320Y0080216D01*
X0135274Y0080117D01*
X0135225Y0080020D01*
X0135172Y0079925D01*
X0135115Y0079832D01*
X0135055Y0079741D01*
X0134992Y0079652D01*
X0134926Y0079566D01*
X0134857Y0079482D01*
X0134784Y0079400D01*
X0134709Y0079321D01*
X0134631Y0079245D01*
X0134550Y0079172D01*
X0134467Y0079102D01*
X0134381Y0079035D01*
X0134293Y0078971D01*
X0134202Y0078911D01*
X0134109Y0078853D01*
X0134015Y0078799D01*
X0133918Y0078749D01*
X0133820Y0078702D01*
X0133720Y0078659D01*
X0133618Y0078619D01*
X0133515Y0078583D01*
X0133411Y0078551D01*
X0133306Y0078523D01*
X0133200Y0078498D01*
X0133093Y0078478D01*
X0132985Y0078461D01*
X0132877Y0078448D01*
X0132769Y0078439D01*
X0132660Y0078434D01*
X0132551Y0078433D01*
X0132442Y0078436D01*
X0132333Y0078443D01*
X0132225Y0078454D01*
X0132117Y0078469D01*
X0132009Y0078487D01*
X0131903Y0078510D01*
X0131797Y0078536D01*
X0131692Y0078567D01*
X0131589Y0078601D01*
X0131487Y0078638D01*
X0131386Y0078680D01*
X0131287Y0078725D01*
X0131189Y0078774D01*
X0131094Y0078826D01*
X0131000Y0078882D01*
X0130908Y0078940D01*
X0130819Y0079003D01*
X0130732Y0079068D01*
X0130647Y0079137D01*
X0130565Y0079208D01*
X0130486Y0079283D01*
X0130409Y0079360D01*
X0130335Y0079440D01*
X0130264Y0079523D01*
X0130197Y0079609D01*
X0130132Y0079696D01*
X0130070Y0079786D01*
X0130012Y0079878D01*
X0129958Y0079972D01*
X0129906Y0080069D01*
X0129858Y0080167D01*
X0129814Y0080266D01*
X0129774Y0080367D01*
X0129737Y0080470D01*
X0129704Y0080574D01*
X0129674Y0080678D01*
X0129649Y0080784D01*
X0129627Y0080891D01*
X0129610Y0080999D01*
X0129596Y0081107D01*
X0129586Y0081215D01*
X0129580Y0081324D01*
X0129578Y0081433D01*
X0075078Y0118933D02*
X0070078Y0118933D01*
X0067578Y0116433D01*
X0065078Y0118933D01*
X0060078Y0118933D01*
X0057578Y0116433D01*
X0055078Y0118933D01*
X0050078Y0118933D01*
X0055078Y0118933D02*
X0060078Y0118933D01*
X0065078Y0118933D02*
X0070078Y0118933D01*
X0117578Y0173933D02*
X0117578Y0183933D01*
X0157578Y0183933D01*
X0157578Y0173933D01*
X0117578Y0173933D01*
X0125078Y0198933D02*
X0122578Y0201433D01*
X0122578Y0206433D01*
X0125078Y0208933D01*
X0130078Y0208933D01*
X0132578Y0206433D01*
X0135078Y0208933D01*
X0140078Y0208933D01*
X0142578Y0206433D01*
X0145078Y0208933D01*
X0150078Y0208933D01*
X0152578Y0206433D01*
X0152578Y0201433D01*
X0150078Y0198933D01*
X0145078Y0198933D01*
X0142578Y0201433D01*
X0140078Y0198933D01*
X0135078Y0198933D01*
X0132578Y0201433D01*
X0130078Y0198933D01*
X0125078Y0198933D01*
X0137578Y0238933D02*
X0137578Y0248933D01*
X0092302Y0243933D02*
X0092316Y0245044D01*
X0092357Y0246155D01*
X0092425Y0247264D01*
X0092520Y0248371D01*
X0092642Y0249475D01*
X0092792Y0250576D01*
X0092969Y0251673D01*
X0093172Y0252766D01*
X0093402Y0253853D01*
X0093659Y0254934D01*
X0093942Y0256009D01*
X0094252Y0257076D01*
X0094587Y0258135D01*
X0094949Y0259186D01*
X0095336Y0260228D01*
X0095748Y0261259D01*
X0096186Y0262281D01*
X0096649Y0263291D01*
X0097136Y0264290D01*
X0097648Y0265276D01*
X0098184Y0266249D01*
X0098743Y0267210D01*
X0099326Y0268156D01*
X0099932Y0269087D01*
X0100561Y0270003D01*
X0101212Y0270904D01*
X0101885Y0271788D01*
X0102579Y0272656D01*
X0103295Y0273506D01*
X0104031Y0274339D01*
X0104787Y0275153D01*
X0105563Y0275948D01*
X0106358Y0276724D01*
X0107172Y0277480D01*
X0108005Y0278216D01*
X0108855Y0278932D01*
X0109723Y0279626D01*
X0110607Y0280299D01*
X0111508Y0280950D01*
X0112424Y0281579D01*
X0113355Y0282185D01*
X0114301Y0282768D01*
X0115262Y0283327D01*
X0116235Y0283863D01*
X0117221Y0284375D01*
X0118220Y0284862D01*
X0119230Y0285325D01*
X0120252Y0285763D01*
X0121283Y0286175D01*
X0122325Y0286562D01*
X0123376Y0286924D01*
X0124435Y0287259D01*
X0125502Y0287569D01*
X0126577Y0287852D01*
X0127658Y0288109D01*
X0128745Y0288339D01*
X0129838Y0288542D01*
X0130935Y0288719D01*
X0132036Y0288869D01*
X0133140Y0288991D01*
X0134247Y0289086D01*
X0135356Y0289154D01*
X0136467Y0289195D01*
X0137578Y0289209D01*
X0138689Y0289195D01*
X0139800Y0289154D01*
X0140909Y0289086D01*
X0142016Y0288991D01*
X0143120Y0288869D01*
X0144221Y0288719D01*
X0145318Y0288542D01*
X0146411Y0288339D01*
X0147498Y0288109D01*
X0148579Y0287852D01*
X0149654Y0287569D01*
X0150721Y0287259D01*
X0151780Y0286924D01*
X0152831Y0286562D01*
X0153873Y0286175D01*
X0154904Y0285763D01*
X0155926Y0285325D01*
X0156936Y0284862D01*
X0157935Y0284375D01*
X0158921Y0283863D01*
X0159894Y0283327D01*
X0160855Y0282768D01*
X0161801Y0282185D01*
X0162732Y0281579D01*
X0163648Y0280950D01*
X0164549Y0280299D01*
X0165433Y0279626D01*
X0166301Y0278932D01*
X0167151Y0278216D01*
X0167984Y0277480D01*
X0168798Y0276724D01*
X0169593Y0275948D01*
X0170369Y0275153D01*
X0171125Y0274339D01*
X0171861Y0273506D01*
X0172577Y0272656D01*
X0173271Y0271788D01*
X0173944Y0270904D01*
X0174595Y0270003D01*
X0175224Y0269087D01*
X0175830Y0268156D01*
X0176413Y0267210D01*
X0176972Y0266249D01*
X0177508Y0265276D01*
X0178020Y0264290D01*
X0178507Y0263291D01*
X0178970Y0262281D01*
X0179408Y0261259D01*
X0179820Y0260228D01*
X0180207Y0259186D01*
X0180569Y0258135D01*
X0180904Y0257076D01*
X0181214Y0256009D01*
X0181497Y0254934D01*
X0181754Y0253853D01*
X0181984Y0252766D01*
X0182187Y0251673D01*
X0182364Y0250576D01*
X0182514Y0249475D01*
X0182636Y0248371D01*
X0182731Y0247264D01*
X0182799Y0246155D01*
X0182840Y0245044D01*
X0182854Y0243933D01*
X0182840Y0242822D01*
X0182799Y0241711D01*
X0182731Y0240602D01*
X0182636Y0239495D01*
X0182514Y0238391D01*
X0182364Y0237290D01*
X0182187Y0236193D01*
X0181984Y0235100D01*
X0181754Y0234013D01*
X0181497Y0232932D01*
X0181214Y0231857D01*
X0180904Y0230790D01*
X0180569Y0229731D01*
X0180207Y0228680D01*
X0179820Y0227638D01*
X0179408Y0226607D01*
X0178970Y0225585D01*
X0178507Y0224575D01*
X0178020Y0223576D01*
X0177508Y0222590D01*
X0176972Y0221617D01*
X0176413Y0220656D01*
X0175830Y0219710D01*
X0175224Y0218779D01*
X0174595Y0217863D01*
X0173944Y0216962D01*
X0173271Y0216078D01*
X0172577Y0215210D01*
X0171861Y0214360D01*
X0171125Y0213527D01*
X0170369Y0212713D01*
X0169593Y0211918D01*
X0168798Y0211142D01*
X0167984Y0210386D01*
X0167151Y0209650D01*
X0166301Y0208934D01*
X0165433Y0208240D01*
X0164549Y0207567D01*
X0163648Y0206916D01*
X0162732Y0206287D01*
X0161801Y0205681D01*
X0160855Y0205098D01*
X0159894Y0204539D01*
X0158921Y0204003D01*
X0157935Y0203491D01*
X0156936Y0203004D01*
X0155926Y0202541D01*
X0154904Y0202103D01*
X0153873Y0201691D01*
X0152831Y0201304D01*
X0151780Y0200942D01*
X0150721Y0200607D01*
X0149654Y0200297D01*
X0148579Y0200014D01*
X0147498Y0199757D01*
X0146411Y0199527D01*
X0145318Y0199324D01*
X0144221Y0199147D01*
X0143120Y0198997D01*
X0142016Y0198875D01*
X0140909Y0198780D01*
X0139800Y0198712D01*
X0138689Y0198671D01*
X0137578Y0198657D01*
X0136467Y0198671D01*
X0135356Y0198712D01*
X0134247Y0198780D01*
X0133140Y0198875D01*
X0132036Y0198997D01*
X0130935Y0199147D01*
X0129838Y0199324D01*
X0128745Y0199527D01*
X0127658Y0199757D01*
X0126577Y0200014D01*
X0125502Y0200297D01*
X0124435Y0200607D01*
X0123376Y0200942D01*
X0122325Y0201304D01*
X0121283Y0201691D01*
X0120252Y0202103D01*
X0119230Y0202541D01*
X0118220Y0203004D01*
X0117221Y0203491D01*
X0116235Y0204003D01*
X0115262Y0204539D01*
X0114301Y0205098D01*
X0113355Y0205681D01*
X0112424Y0206287D01*
X0111508Y0206916D01*
X0110607Y0207567D01*
X0109723Y0208240D01*
X0108855Y0208934D01*
X0108005Y0209650D01*
X0107172Y0210386D01*
X0106358Y0211142D01*
X0105563Y0211918D01*
X0104787Y0212713D01*
X0104031Y0213527D01*
X0103295Y0214360D01*
X0102579Y0215210D01*
X0101885Y0216078D01*
X0101212Y0216962D01*
X0100561Y0217863D01*
X0099932Y0218779D01*
X0099326Y0219710D01*
X0098743Y0220656D01*
X0098184Y0221617D01*
X0097648Y0222590D01*
X0097136Y0223576D01*
X0096649Y0224575D01*
X0096186Y0225585D01*
X0095748Y0226607D01*
X0095336Y0227638D01*
X0094949Y0228680D01*
X0094587Y0229731D01*
X0094252Y0230790D01*
X0093942Y0231857D01*
X0093659Y0232932D01*
X0093402Y0234013D01*
X0093172Y0235100D01*
X0092969Y0236193D01*
X0092792Y0237290D01*
X0092642Y0238391D01*
X0092520Y0239495D01*
X0092425Y0240602D01*
X0092357Y0241711D01*
X0092316Y0242822D01*
X0092302Y0243933D01*
X0092302Y0198657D02*
X0092302Y0289209D01*
X0182853Y0289209D01*
X0182853Y0198657D01*
X0092302Y0198657D01*
X0073578Y0195933D02*
X0073578Y0291933D01*
X0201578Y0291933D01*
X0201578Y0195933D01*
X0073578Y0195933D01*
X0132578Y0243933D02*
X0142578Y0243933D01*
X0144078Y0302433D02*
X0144078Y0304933D01*
X0141078Y0304933D01*
X0141078Y0302433D01*
X0141078Y0304933D02*
X0134078Y0304933D01*
X0134078Y0302433D01*
X0134078Y0304933D02*
X0131078Y0304933D01*
X0131078Y0302433D01*
X0131078Y0304933D02*
X0124078Y0304933D01*
X0124078Y0302433D01*
X0124078Y0304933D02*
X0121078Y0304933D01*
X0121078Y0302433D01*
X0121078Y0304933D02*
X0117578Y0304933D01*
X0117578Y0314933D01*
X0157578Y0314933D01*
X0157578Y0304933D01*
X0154078Y0304933D01*
X0154078Y0302433D01*
X0154078Y0304933D02*
X0151078Y0304933D01*
X0151078Y0302433D01*
X0151078Y0304933D02*
X0144078Y0304933D01*
X0157263Y0321374D02*
X0157263Y0368618D01*
X0220255Y0368618D01*
X0220255Y0321374D01*
X0226160Y0321374D01*
X0226160Y0314933D01*
X0048995Y0314933D01*
X0048995Y0321374D01*
X0054900Y0321374D01*
X0054900Y0368618D01*
X0117893Y0368618D01*
X0117893Y0321374D01*
X0157263Y0321374D01*
X0220255Y0321374D01*
X0117893Y0321374D02*
X0054900Y0321374D01*
D14*
X0140724Y0089577D02*
X0140724Y0087108D01*
X0140724Y0085893D02*
X0140724Y0083425D01*
X0144428Y0083425D01*
X0144428Y0085893D01*
X0142576Y0084659D02*
X0142576Y0083425D01*
X0143193Y0082210D02*
X0143810Y0082210D01*
X0144428Y0081593D01*
X0144428Y0080359D01*
X0143810Y0079741D01*
X0144428Y0078527D02*
X0144428Y0076058D01*
X0140724Y0076058D01*
X0140724Y0078527D01*
X0141342Y0079741D02*
X0140724Y0080359D01*
X0140724Y0081593D01*
X0141342Y0082210D01*
X0142576Y0081593D02*
X0143193Y0082210D01*
X0142576Y0081593D02*
X0142576Y0080359D01*
X0141959Y0079741D01*
X0141342Y0079741D01*
X0142576Y0077293D02*
X0142576Y0076058D01*
X0142576Y0074844D02*
X0143193Y0074227D01*
X0143193Y0072375D01*
X0143193Y0073610D02*
X0144428Y0074844D01*
X0142576Y0074844D02*
X0141342Y0074844D01*
X0140724Y0074227D01*
X0140724Y0072375D01*
X0144428Y0072375D01*
X0144428Y0088342D02*
X0140724Y0088342D01*
D15*
X0142578Y0133183D03*
X0142578Y0154683D03*
X0127578Y0154683D03*
X0127578Y0133183D03*
X0112578Y0133183D03*
X0112578Y0154683D03*
D16*
X0211828Y0228933D03*
X0233328Y0228933D03*
M02*
